<svg xmlns="http://www.w3.org/2000/svg" width="256" height="256" viewBox="0 0 100 100"><rect width="100" height="100" rx="20" fill="#ff6633"></rect><path fill="#fff" d="M69.48 50.67Q70.66 50.67 71.33 51.75Q72.00 52.83 72.00 54.72L72.00 54.72Q72.00 58.32 70.30 60.30L70.30 60.30Q66.97 64.35 60.89 67.77Q54.81 71.19 47.89 71.19L47.89 71.19Q38.44 71.19 33.22 66.06Q28.00 60.93 28.00 52.02L28.00 52.02Q28.00 45.81 30.61 40.46Q33.22 35.10 37.85 31.95Q42.48 28.80 48.34 28.80L48.34 28.80Q53.55 28.80 56.70 31.91Q59.86 35.01 59.86 40.32L59.86 40.32Q59.86 46.53 55.40 50.99Q50.95 55.44 40.33 58.05L40.33 58.05Q42.58 62.19 48.88 62.19L48.88 62.19Q52.92 62.19 58.10 59.36Q63.28 56.52 67.06 51.93L67.06 51.93Q68.14 50.67 69.48 50.67L69.48 50.67ZM46.80 37.62Q43.48 37.62 41.18 41.49Q38.89 45.36 38.89 50.85L38.89 50.85L38.89 51.03Q44.20 49.77 47.26 47.25Q50.31 44.73 50.31 41.40L50.31 41.40Q50.31 39.69 49.37 38.66Q48.42 37.62 46.80 37.62L46.80 37.62Z"></path></svg>